<svg width="609" height="862" viewBox="0 0 609 862" fill="none" xmlns="http://www.w3.org/2000/svg">
<path d="M307.342 545.256C171.754 545.256 61.8042 514.952 61.8042 477.583C61.8042 458.805 89.553 441.826 134.359 429.569C178.725 441.711 239.856 449.216 307.342 449.216C374.827 449.216 435.969 441.711 480.346 429.569C525.141 441.826 552.88 458.805 552.88 477.583C552.88 514.952 442.951 545.256 307.342 545.256ZM450.695 486.868C450.697 484.403 449.969 481.994 448.603 479.944C447.238 477.894 445.295 476.295 443.022 475.351C440.749 474.407 438.247 474.16 435.834 474.64C433.42 475.12 431.203 476.307 429.463 478.049C427.723 479.792 426.539 482.013 426.059 484.43C425.579 486.847 425.827 489.353 426.769 491.629C427.712 493.906 429.308 495.851 431.354 497.219C433.401 498.587 435.807 499.316 438.268 499.314C441.563 499.311 444.722 497.999 447.052 495.665C449.382 493.332 450.692 490.168 450.695 486.868ZM386.763 499.314C386.763 496.852 386.034 494.446 384.669 492.399C383.303 490.352 381.362 488.757 379.092 487.815C376.821 486.873 374.322 486.627 371.912 487.107C369.501 487.587 367.287 488.773 365.549 490.513C363.811 492.254 362.628 494.471 362.148 496.886C361.669 499.3 361.915 501.802 362.855 504.077C363.796 506.351 365.389 508.295 367.432 509.662C369.476 511.03 371.878 511.76 374.336 511.76C377.632 511.76 380.793 510.448 383.123 508.114C385.454 505.78 386.763 502.615 386.763 499.314ZM245.667 499.659C245.67 497.195 244.942 494.786 243.576 492.736C242.211 490.686 240.269 489.088 237.997 488.144C235.725 487.199 233.223 486.951 230.81 487.43C228.397 487.91 226.18 489.095 224.439 490.837C222.699 492.579 221.513 494.798 221.033 497.215C220.552 499.631 220.798 502.136 221.739 504.413C222.68 506.69 224.274 508.636 226.319 510.005C228.365 511.374 230.77 512.105 233.23 512.105C234.864 512.108 236.482 511.788 237.992 511.164C239.502 510.539 240.875 509.623 242.031 508.467C243.187 507.311 244.104 505.938 244.73 504.427C245.356 502.915 245.678 501.295 245.678 499.659H245.667ZM181.735 487.203C181.733 484.742 181.003 482.336 179.636 480.291C178.269 478.246 176.328 476.652 174.057 475.712C171.786 474.771 169.288 474.527 166.878 475.008C164.468 475.489 162.255 476.675 160.518 478.416C158.781 480.157 157.598 482.375 157.12 484.789C156.641 487.203 156.888 489.705 157.829 491.979C158.77 494.252 160.362 496.195 162.406 497.562C164.449 498.929 166.851 499.659 169.309 499.659C170.942 499.661 172.56 499.339 174.07 498.714C175.579 498.088 176.951 497.171 178.106 496.014C179.261 494.857 180.177 493.483 180.802 491.971C181.427 490.459 181.747 488.839 181.746 487.203H181.735Z" fill="url(#paint0_linear_1087_385)"/>
<path d="M438.269 499.314C445.132 499.314 450.696 493.742 450.696 486.868C450.696 479.994 445.132 474.422 438.269 474.422C431.406 474.422 425.842 479.994 425.842 486.868C425.842 493.742 431.406 499.314 438.269 499.314Z" fill="url(#paint1_linear_1087_385)"/>
<path d="M552.879 381.586V477.625C552.879 458.846 525.141 441.868 480.346 429.611C525.141 417.311 552.879 400.323 552.879 381.586Z" fill="url(#paint2_linear_1087_385)"/>
<path d="M374.337 511.76C381.2 511.76 386.763 506.187 386.763 499.314C386.763 492.44 381.2 486.868 374.337 486.868C367.473 486.868 361.91 492.44 361.91 499.314C361.91 506.187 367.473 511.76 374.337 511.76Z" fill="url(#paint3_linear_1087_385)"/>
<path d="M307.342 409.921C374.838 409.921 435.969 417.427 480.346 429.569C435.969 441.711 374.838 449.216 307.342 449.216C239.846 449.216 178.726 441.711 134.359 429.569C178.726 417.427 239.857 409.921 307.342 409.921Z" fill="url(#paint4_linear_1087_385)"/>
<path d="M169.319 499.649C176.182 499.649 181.746 494.077 181.746 487.203C181.746 480.329 176.182 474.757 169.319 474.757C162.456 474.757 156.892 480.329 156.892 487.203C156.892 494.077 162.456 499.649 169.319 499.649Z" fill="url(#paint5_linear_1087_385)"/>
<path d="M61.8043 477.583C61.8043 514.952 171.733 545.256 307.342 545.256C442.951 545.256 552.88 514.952 552.88 477.583V381.586C552.88 344.217 442.951 313.934 307.342 313.934C171.733 313.934 61.8043 344.175 61.8043 381.586V477.583ZM305.158 154.232C458.795 154.232 583.315 278.963 583.315 432.814C583.315 586.665 458.774 711.406 305.158 711.406C151.541 711.406 26.9902 586.675 26.9902 432.814C26.9902 278.952 151.531 154.232 305.158 154.232Z" fill="url(#paint6_linear_1087_385)"/>
<path d="M233.24 512.105C240.104 512.105 245.667 506.533 245.667 499.659C245.667 492.786 240.104 487.213 233.24 487.213C226.377 487.213 220.813 492.786 220.813 499.659C220.813 506.533 226.377 512.105 233.24 512.105Z" fill="url(#paint7_linear_1087_385)"/>
<path d="M552.88 381.586C552.88 400.365 525.141 417.353 480.346 429.611C435.969 417.469 374.838 409.963 307.342 409.963C239.846 409.963 178.725 417.469 134.359 429.611C89.553 417.312 61.8042 400.323 61.8042 381.586C61.8042 344.217 171.733 313.935 307.342 313.935C442.951 313.935 552.88 344.175 552.88 381.586Z" fill="url(#paint8_linear_1087_385)"/>
<path d="M134.359 429.569C89.553 441.826 61.8042 458.805 61.8042 477.583V381.586C61.8042 400.323 89.553 417.311 134.359 429.569Z" fill="url(#paint9_linear_1087_385)"/>
<path d="M552.88 381.586C552.88 400.365 525.141 417.353 480.346 429.611C435.969 441.753 374.838 449.258 307.342 449.258C239.846 449.258 178.725 441.753 134.359 429.611C89.553 417.312 61.8042 400.323 61.8042 381.586C61.8042 344.217 171.733 313.935 307.342 313.935C442.951 313.935 552.88 344.175 552.88 381.586Z" fill="url(#paint10_linear_1087_385)"/>
<path d="M583.315 432.814C583.315 586.686 458.774 711.406 305.158 711.406C151.541 711.406 26.9902 586.675 26.9902 432.814C26.9902 278.952 151.531 154.232 305.158 154.232C458.785 154.232 583.315 279.004 583.315 432.814Z" fill="url(#paint11_linear_1087_385)"/>
<path d="M305.157 569.823C320.673 569.823 333.251 555.941 333.251 538.818C333.251 521.695 320.673 507.813 305.157 507.813C289.641 507.813 277.063 521.695 277.063 538.818C277.063 555.941 289.641 569.823 305.157 569.823Z" fill="url(#paint12_linear_1087_385)"/>
<path d="M277.482 544.146C277.206 542.383 277.066 540.602 277.063 538.818C277.063 521.819 289.741 507.824 305.157 507.824C320.573 507.824 333.24 521.819 333.24 538.818C333.243 540.687 333.092 542.553 332.791 544.397" fill="url(#paint13_linear_1087_385)"/>
<path d="M306.61 525.284C316.238 525.284 324.044 517.467 324.044 507.824C324.044 498.181 316.238 490.364 306.61 490.364C296.982 490.364 289.177 498.181 289.177 507.824C289.177 517.467 296.982 525.284 306.61 525.284Z" fill="url(#paint14_linear_1087_385)"/>
<g clip-path="url(#clip0_1087_385)">
<mask id="mask0_1087_385" style="mask-type:alpha" maskUnits="userSpaceOnUse" x="-10" y="65" width="307" height="796">
<rect width="307" height="796" transform="matrix(-1 0 0 1 297 65)" fill="#D9D9D9"/>
</mask>
<g mask="url(#mask0_1087_385)">
<path d="M306.314 702.626C455.453 702.626 576.353 581.898 576.353 432.973C576.353 284.049 455.453 163.321 306.314 163.321C157.176 163.321 36.2759 284.049 36.2759 432.973C36.2759 581.898 157.176 702.626 306.314 702.626Z" fill="#0E0E0C" stroke="#5B0A08" stroke-width="5" stroke-miterlimit="10"/>
<path d="M187.479 400.075L170.463 389.578C168.434 392.952 169.033 397.511 171.64 401.878L98.4536 518.518C93.3804 518.062 88.9261 519.531 86.775 522.955C83.0411 528.913 87.5969 538.498 96.9215 544.354C106.246 550.21 116.91 550.129 120.654 544.161C122.795 540.747 122.207 536.147 119.558 531.73L192.735 415.09C197.859 415.536 202.272 414.077 204.403 410.683V410.622L187.479 400.075Z" fill="#5B0A08" stroke="#5B0A08" stroke-width="5" stroke-miterlimit="10"/>
<path d="M177.21 392.638C179.777 389.122 182.446 385.333 185.023 381.614C187.6 377.896 190.178 374.107 192.714 370.307C197.788 362.728 202.742 355.069 207.579 347.328C212.415 339.587 217.12 331.779 221.693 323.903C223.996 319.931 226.208 316.071 228.369 312.089C230.53 308.107 232.671 304.075 234.812 300.012C239.094 291.906 243.355 283.608 247.84 275.33C252.325 267.052 256.972 258.764 262.289 250.588C264.937 246.535 267.748 242.482 270.842 238.43C274.025 234.283 277.526 230.391 281.313 226.788C285.484 222.719 290.279 219.343 295.518 216.788C298.512 215.363 301.682 214.341 304.945 213.748C306.658 213.453 308.391 213.291 310.129 213.262H311.276H312.291C312.95 213.262 313.589 213.262 314.259 213.323C319.844 213.494 325.384 214.372 330.747 215.937C333.75 216.843 336.643 218.08 339.372 219.625C342.369 221.331 345.087 223.487 347.428 226.018C349.824 228.62 351.753 231.616 353.13 234.873C354.415 237.91 355.282 241.107 355.707 244.377C356.385 250.099 356.153 255.892 355.017 261.541C354.056 266.627 352.699 271.63 350.959 276.505C349.285 281.247 347.397 285.807 345.368 290.244C341.322 298.957 336.842 307.461 331.944 315.726C322.315 332.089 311.753 347.612 300.866 362.81C289.978 378.007 278.696 392.831 267.291 407.492C255.886 422.152 244.329 436.661 232.884 451.15C227.172 458.405 221.48 465.649 215.95 472.934C213.19 476.581 210.471 480.229 207.833 483.897C205.194 487.564 202.688 491.252 200.558 494.829C196.407 502.073 193.467 509.944 191.852 518.133C190.105 526.455 189.535 534.982 190.157 543.462C190.797 551.791 192.724 560.089 196.418 566.644C198.06 569.7 200.353 572.36 203.135 574.436C205.689 576.242 208.731 577.234 211.861 577.283C215.464 577.29 219.032 576.573 222.352 575.175C226.133 573.638 229.736 571.695 233.097 569.38C240.251 564.381 246.859 558.645 252.812 552.267C255.856 549.055 258.9 545.702 261.792 542.277C263.242 540.565 264.683 538.822 266.094 537.069L268.204 534.415L269.219 533.077L269.726 532.419L270.152 531.851C272.551 528.407 274.649 524.763 276.423 520.959C278.371 517.008 280.157 512.854 281.902 508.679C285.362 500.3 288.578 491.698 291.754 483.046L301.221 456.976C307.562 439.559 314.076 422.102 321.595 404.928C325.359 396.336 329.398 387.825 333.943 379.497C338.462 370.978 343.786 362.91 349.843 355.403C353.048 351.509 356.653 347.96 360.598 344.815C362.698 343.197 364.928 341.753 367.264 340.499C369.493 339.341 371.779 338.296 374.113 337.368C378.886 335.437 383.901 334.166 389.018 333.589C394.329 333 399.703 333.44 404.847 334.886C410.018 336.389 414.822 338.942 418.961 342.383C420.99 344.071 422.862 345.939 424.551 347.966C425.393 348.979 426.165 349.993 426.946 351.097C427.718 352.214 428.426 353.375 429.066 354.572C432.263 360.595 433.624 367.42 432.982 374.206C432.34 380.991 429.723 387.441 425.454 392.76L424.805 393.53L424.186 394.249L423.08 395.546L420.797 398.15C417.76 401.615 414.743 405.097 411.746 408.596C405.746 415.594 399.848 422.669 394.051 429.822C382.464 444.129 371.292 458.769 360.77 473.846C350.195 488.854 340.463 504.437 331.62 520.524C322.904 536.613 315.243 553.321 310.15 570.738C308.881 575.094 307.796 579.482 306.933 583.909C306.045 588.286 305.479 592.723 305.239 597.182C305.001 601.584 305.225 605.999 305.908 610.354C306.6 614.606 307.923 618.731 309.835 622.593C310.813 624.469 311.954 626.256 313.244 627.933C314.562 629.562 316.033 631.062 317.638 632.411C319.274 633.711 321.038 634.842 322.904 635.785C324.792 636.701 326.776 637.408 328.819 637.892C330.876 638.39 332.983 638.655 335.1 638.683C337.234 638.75 339.37 638.594 341.472 638.217C345.672 637.6 349.676 636.038 353.181 633.647C356.598 631.169 359.337 627.873 361.146 624.062C363.045 620.047 364.514 615.842 365.529 611.519C366.666 607.122 367.558 602.593 368.573 598.074L371.617 584.527C375.676 566.452 380.11 548.397 385.822 530.706C391.535 513.016 398.455 495.65 407.668 479.418C412.253 471.272 417.553 463.548 423.506 456.338C429.442 449.085 436.278 442.616 443.85 437.087C447.652 434.368 451.658 431.946 455.833 429.843C460.014 427.758 464.337 425.971 468.77 424.493C477.567 421.453 486.841 419.326 496.267 419.64C498.621 419.744 500.963 420.043 503.268 420.531C505.574 421.038 507.822 421.781 509.975 422.75C514.278 424.756 517.995 427.829 520.77 431.676C523.463 435.538 525.354 439.9 526.331 444.504C527.311 449.055 527.686 453.715 527.447 458.364C526.983 467.666 524.679 476.785 520.669 485.194C518.698 489.396 516.206 493.334 513.252 496.916C510.357 500.553 506.686 503.499 502.507 505.539C506.658 503.463 510.297 500.494 513.161 496.845C516.056 493.242 518.486 489.29 520.395 485.082C524.262 476.685 526.434 467.61 526.787 458.374C526.969 453.783 526.546 449.187 525.529 444.706C524.524 440.245 522.637 436.029 519.979 432.305C517.248 428.664 513.634 425.777 509.477 423.915C507.39 423.023 505.218 422.344 502.994 421.889C500.762 421.45 498.499 421.192 496.226 421.119C487.094 420.926 477.962 423.145 469.368 426.185C465.033 427.688 460.812 429.5 456.736 431.606C452.68 433.729 448.796 436.165 445.118 438.89C437.786 444.399 431.185 450.817 425.475 457.989C419.739 465.162 414.646 472.824 410.255 480.887C401.417 496.997 394.832 514.272 389.424 531.861C384.016 549.45 379.856 567.445 376.092 585.561L373.281 599.138C372.337 603.656 371.465 608.256 370.359 612.785C369.31 617.48 367.769 622.051 365.763 626.423C363.629 631.034 360.379 635.042 356.306 638.085C352.17 640.999 347.423 642.933 342.426 643.739C339.976 644.217 337.484 644.438 334.988 644.397C332.469 644.395 329.957 644.113 327.5 643.556C325.024 643.016 322.618 642.197 320.327 641.114C318.034 639.996 315.868 638.637 313.863 637.062C311.895 635.468 310.09 633.682 308.475 631.732C306.906 629.767 305.517 627.665 304.326 625.45C302.048 621.033 300.447 616.299 299.577 611.407C298.746 606.622 298.423 601.762 298.613 596.909C298.797 592.124 299.332 587.359 300.216 582.653C301.058 577.992 302.134 573.382 303.392 568.833C308.465 550.646 316.075 533.371 324.7 516.866C333.467 500.396 343.142 484.424 353.678 469.023C364.129 453.602 375.219 438.627 386.725 424.027C392.482 416.718 398.336 409.498 404.289 402.365C407.258 398.798 410.251 395.245 413.268 391.706L415.531 389.061L416.657 387.744C416.86 387.511 417.023 387.309 417.165 387.136L417.621 386.569C418.823 385.051 419.845 383.398 420.665 381.645C422.27 378.149 423.036 374.328 422.902 370.485C422.768 366.641 421.738 362.882 419.894 359.507C419.435 358.673 418.927 357.868 418.372 357.095C417.824 356.315 417.165 355.494 416.515 354.744C415.224 353.227 413.79 351.836 412.233 350.59C409.202 348.127 405.692 346.32 401.925 345.281C394.426 343.204 386.086 344.501 378.324 347.743C376.381 348.551 374.482 349.457 372.632 350.459C370.904 351.429 369.255 352.533 367.701 353.762C364.448 356.447 361.483 359.462 358.853 362.759C353.393 369.756 348.61 377.253 344.567 385.15C340.366 393.124 336.581 401.362 333.04 409.802C325.938 426.631 319.769 443.956 313.701 461.383L304.569 487.615C301.525 496.379 298.359 505.154 294.879 513.958C293.124 518.345 291.308 522.722 289.248 527.13C287.156 531.727 284.668 536.135 281.811 540.301L281.212 541.132L280.674 541.852L279.599 543.26L277.427 546.066C275.959 547.91 274.481 549.748 272.993 551.578C269.949 555.246 266.844 558.863 263.567 562.379C256.974 569.626 249.635 576.16 241.671 581.873C237.43 584.863 232.879 587.387 228.095 589.401C222.869 591.64 217.243 592.802 211.556 592.815C208.487 592.785 205.438 592.311 202.506 591.407C199.549 590.476 196.749 589.11 194.196 587.354C189.427 584.009 185.465 579.644 182.598 574.578C179.933 569.954 177.886 565.001 176.51 559.846C175.169 554.917 174.273 549.878 173.832 544.79C172.95 534.786 173.473 524.709 175.384 514.85C177.241 504.824 180.719 495.167 185.683 486.257C188.23 481.84 190.888 477.878 193.587 473.957C196.286 470.036 199.036 466.237 201.806 462.468C207.356 454.919 212.967 447.523 218.608 440.177C229.871 425.445 241.174 410.794 252.264 396.103C263.354 381.412 274.251 366.558 284.733 351.523C295.214 336.487 305.198 321.198 314.097 305.523C318.52 297.8 322.554 289.86 326.181 281.734C329.661 273.75 332.614 265.522 333.923 257.883C334.581 254.44 334.701 250.916 334.278 247.437C334.094 246.117 333.728 244.828 333.192 243.607C332.753 242.601 332.138 241.682 331.376 240.892C329.417 239.042 327.007 237.739 324.385 237.112C320.823 236.16 317.155 235.66 313.468 235.623C312.981 235.623 312.453 235.623 311.966 235.623H310.627C310.044 235.643 309.464 235.707 308.892 235.815C307.596 236.08 306.341 236.513 305.158 237.102C302.116 238.685 299.342 240.737 296.939 243.181C291.44 248.531 286.397 255.583 281.719 262.969C277.042 270.355 272.74 278.289 268.529 286.333C264.318 294.378 260.209 302.626 255.947 310.924C253.85 315.064 251.703 319.229 249.504 323.416C247.312 327.601 244.989 331.806 242.696 335.869C238.089 344.055 233.354 352.161 228.491 360.185C223.627 368.21 218.642 376.157 213.535 384.026C210.991 387.957 208.404 391.875 205.773 395.779C203.135 399.7 200.537 403.51 197.656 407.512L177.21 392.638Z" fill="#9B201D"/>
</g>
</g>
<mask id="mask1_1087_385" style="mask-type:alpha" maskUnits="userSpaceOnUse" x="311" y="72" width="297" height="789">
<rect x="311" y="72" width="297" height="789" fill="#D9D9D9"/>
</mask>
<g mask="url(#mask1_1087_385)">
<path d="M306.293 540.754C173.723 540.754 66.2192 511.124 66.2192 474.587C66.2192 456.226 93.3506 439.626 137.159 427.641C180.539 439.513 240.309 446.851 306.293 446.851C372.277 446.851 432.058 439.513 475.448 427.641C519.246 439.626 546.367 456.226 546.367 474.587C546.367 511.124 438.884 540.754 306.293 540.754ZM446.457 483.665C446.459 481.255 445.747 478.899 444.411 476.895C443.076 474.891 441.177 473.328 438.954 472.405C436.732 471.482 434.286 471.24 431.926 471.709C429.566 472.179 427.398 473.339 425.697 475.043C423.996 476.747 422.837 478.918 422.369 481.281C421.9 483.645 422.141 486.095 423.063 488.32C423.985 490.546 425.545 492.448 427.546 493.786C429.548 495.123 431.9 495.836 434.306 495.834C437.528 495.831 440.617 494.548 442.895 492.267C445.173 489.985 446.454 486.892 446.457 483.665ZM383.947 495.834C383.947 493.427 383.235 491.075 381.899 489.073C380.564 487.072 378.667 485.512 376.447 484.591C374.226 483.67 371.783 483.429 369.426 483.899C367.069 484.369 364.904 485.527 363.205 487.229C361.506 488.931 360.349 491.099 359.88 493.46C359.411 495.821 359.652 498.267 360.571 500.491C361.491 502.714 363.048 504.615 365.046 505.952C367.045 507.289 369.394 508.003 371.797 508.003C375.019 508.003 378.11 506.721 380.388 504.439C382.667 502.157 383.947 499.061 383.947 495.834ZM245.991 496.172C245.993 493.763 245.282 491.407 243.947 489.403C242.612 487.398 240.713 485.836 238.491 484.912C236.269 483.989 233.824 483.746 231.464 484.215C229.105 484.684 226.937 485.843 225.235 487.546C223.534 489.249 222.375 491.419 221.904 493.782C221.434 496.145 221.675 498.594 222.595 500.82C223.515 503.046 225.073 504.949 227.074 506.287C229.074 507.626 231.425 508.341 233.831 508.341C235.428 508.343 237.01 508.031 238.487 507.42C239.963 506.81 241.305 505.914 242.435 504.784C243.566 503.653 244.463 502.311 245.075 500.833C245.686 499.356 246.001 497.772 246.001 496.172H245.991ZM183.482 483.993C183.48 481.586 182.765 479.235 181.429 477.235C180.093 475.235 178.194 473.677 175.974 472.757C173.754 471.838 171.311 471.598 168.955 472.069C166.599 472.54 164.435 473.7 162.736 475.402C161.038 477.104 159.882 479.272 159.414 481.633C158.946 483.993 159.187 486.439 160.107 488.662C161.027 490.885 162.584 492.785 164.582 494.122C166.58 495.458 168.929 496.172 171.331 496.172C172.929 496.173 174.511 495.859 175.987 495.247C177.463 494.636 178.804 493.739 179.933 492.608C181.063 491.476 181.958 490.133 182.569 488.655C183.18 487.177 183.493 485.592 183.492 483.993H183.482Z" fill="#30207C"/>
<path d="M434.306 495.834C441.017 495.834 446.456 490.386 446.456 483.665C446.456 476.945 441.017 471.496 434.306 471.496C427.596 471.496 422.156 476.945 422.156 483.665C422.156 490.386 427.596 495.834 434.306 495.834Z" fill="#0E0E0C"/>
<path d="M546.367 380.726V474.628C546.367 456.267 519.246 439.667 475.447 427.682C519.246 415.657 546.367 399.046 546.367 380.726Z" fill="#30207C"/>
<path d="M371.797 508.003C378.507 508.003 383.947 502.555 383.947 495.834C383.947 489.114 378.507 483.665 371.797 483.665C365.086 483.665 359.646 489.114 359.646 495.834C359.646 502.555 365.086 508.003 371.797 508.003Z" fill="#0E0E0C"/>
<path d="M306.293 408.431C372.287 408.431 432.058 415.769 475.448 427.641C432.058 439.513 372.287 446.851 306.293 446.851C240.299 446.851 180.539 439.513 137.159 427.641C180.539 415.769 240.309 408.431 306.293 408.431Z" fill="#0E0E0C"/>
<path d="M66.219 474.587C66.219 511.125 173.702 540.754 306.293 540.754C438.884 540.754 546.367 511.125 546.367 474.587V380.726C546.367 344.189 438.884 314.58 306.293 314.58C173.702 314.58 66.219 344.148 66.219 380.726V474.587ZM304.157 158.431C454.376 158.431 576.125 280.386 576.125 430.814C576.125 581.242 454.356 703.207 304.157 703.207C153.959 703.207 32.1797 581.252 32.1797 430.814C32.1797 280.376 153.949 158.431 304.157 158.431Z" fill="#0E0E0C"/>
<path d="M546.367 380.726C546.367 399.087 519.246 415.697 475.448 427.682C432.058 415.81 372.287 408.472 306.293 408.472C240.299 408.472 180.539 415.81 137.159 427.682C93.3506 415.656 66.2192 399.046 66.2192 380.726C66.2192 344.188 173.702 314.58 306.293 314.58C438.884 314.58 546.367 344.148 546.367 380.726Z" fill="#30207C"/>
<path d="M546.367 380.726C546.367 399.087 519.246 415.697 475.448 427.682C432.058 439.554 372.287 446.892 306.293 446.892C240.299 446.892 180.539 439.554 137.159 427.682C93.3506 415.656 66.2192 399.046 66.2192 380.726C66.2192 344.188 173.702 314.58 306.293 314.58C438.884 314.58 546.367 344.148 546.367 380.726Z" stroke="#0E0E0C" stroke-width="10" stroke-miterlimit="10"/>
<path d="M576.125 430.814C576.125 581.262 454.356 703.207 304.157 703.207C153.959 703.207 32.1797 581.252 32.1797 430.814C32.1797 280.376 153.949 158.431 304.157 158.431C454.366 158.431 576.125 280.427 576.125 430.814Z" stroke="#30207C" stroke-width="5" stroke-miterlimit="10"/>
<path d="M304.157 564.774C319.328 564.774 331.626 551.202 331.626 534.459C331.626 517.717 319.328 504.145 304.157 504.145C288.987 504.145 276.688 517.717 276.688 534.459C276.688 551.202 288.987 564.774 304.157 564.774Z" stroke="#30207C" stroke-width="7" stroke-linecap="round" stroke-linejoin="round"/>
<path d="M277.097 539.669C276.828 537.945 276.691 536.204 276.688 534.459C276.688 517.838 289.084 504.155 304.157 504.155C319.23 504.155 331.615 517.838 331.615 534.459C331.618 536.287 331.471 538.111 331.176 539.914" stroke="#0E0E0C" stroke-width="7" stroke-linecap="round" stroke-linejoin="round"/>
<path d="M305.578 521.226C314.992 521.226 322.623 513.583 322.623 504.155C322.623 494.727 314.992 487.083 305.578 487.083C296.164 487.083 288.533 494.727 288.533 504.155C288.533 513.583 296.164 521.226 305.578 521.226Z" fill="#30207C" stroke="#0E0E0C" stroke-width="3" stroke-linecap="round" stroke-linejoin="round"/>
</g>
<defs>
<linearGradient id="paint0_linear_1087_385" x1="54.5873" y1="486.719" x2="548.379" y2="549.075" gradientUnits="userSpaceOnUse">
<stop stop-color="#9B201D"/>
<stop offset="1" stop-color="#30207C"/>
</linearGradient>
<linearGradient id="paint1_linear_1087_385" x1="425.477" y1="486.719" x2="450.844" y2="487.472" gradientUnits="userSpaceOnUse">
<stop stop-color="#9B201D"/>
<stop offset="1" stop-color="#30207C"/>
</linearGradient>
<linearGradient id="paint2_linear_1087_385" x1="479.28" y1="429.03" x2="553.34" y2="430.694" gradientUnits="userSpaceOnUse">
<stop stop-color="#9B201D"/>
<stop offset="1" stop-color="#30207C"/>
</linearGradient>
<linearGradient id="paint3_linear_1087_385" x1="361.544" y1="499.165" x2="386.912" y2="499.918" gradientUnits="userSpaceOnUse">
<stop stop-color="#9B201D"/>
<stop offset="1" stop-color="#30207C"/>
</linearGradient>
<linearGradient id="paint4_linear_1087_385" x1="129.274" y1="429.333" x2="460.03" y2="515.97" gradientUnits="userSpaceOnUse">
<stop stop-color="#9B201D"/>
<stop offset="1" stop-color="#30207C"/>
</linearGradient>
<linearGradient id="paint5_linear_1087_385" x1="156.527" y1="487.054" x2="181.894" y2="487.807" gradientUnits="userSpaceOnUse">
<stop stop-color="#9B201D"/>
<stop offset="1" stop-color="#30207C"/>
</linearGradient>
<linearGradient id="paint6_linear_1087_385" x1="18.8145" y1="429.479" x2="586.635" y2="446.345" gradientUnits="userSpaceOnUse">
<stop stop-color="#9B201D"/>
<stop offset="1" stop-color="#30207C"/>
</linearGradient>
<linearGradient id="paint7_linear_1087_385" x1="220.448" y1="499.51" x2="245.816" y2="500.263" gradientUnits="userSpaceOnUse">
<stop stop-color="#9B201D"/>
<stop offset="1" stop-color="#30207C"/>
</linearGradient>
<linearGradient id="paint8_linear_1087_385" x1="54.5873" y1="371.079" x2="548.377" y2="433.441" gradientUnits="userSpaceOnUse">
<stop stop-color="#9B201D"/>
<stop offset="1" stop-color="#30207C"/>
</linearGradient>
<linearGradient id="paint9_linear_1087_385" x1="60.7379" y1="429.009" x2="134.82" y2="430.675" gradientUnits="userSpaceOnUse">
<stop stop-color="#9B201D"/>
<stop offset="1" stop-color="#30207C"/>
</linearGradient>
<linearGradient id="paint10_linear_1087_385" x1="54.5873" y1="380.785" x2="550.474" y2="434.319" gradientUnits="userSpaceOnUse">
<stop stop-color="#9B201D"/>
<stop offset="1" stop-color="#30207C"/>
</linearGradient>
<linearGradient id="paint11_linear_1087_385" x1="18.8145" y1="429.479" x2="586.635" y2="446.345" gradientUnits="userSpaceOnUse">
<stop stop-color="#9B201D"/>
<stop offset="1" stop-color="#30207C"/>
</linearGradient>
<linearGradient id="paint12_linear_1087_385" x1="276.238" y1="538.446" x2="333.595" y2="539.992" gradientUnits="userSpaceOnUse">
<stop stop-color="#9B201D"/>
<stop offset="1" stop-color="#30207C"/>
</linearGradient>
<linearGradient id="paint13_linear_1087_385" x1="276.238" y1="525.891" x2="333.507" y2="528.508" gradientUnits="userSpaceOnUse">
<stop stop-color="#9B201D"/>
<stop offset="1" stop-color="#30207C"/>
</linearGradient>
<linearGradient id="paint14_linear_1087_385" x1="288.665" y1="507.614" x2="324.252" y2="508.671" gradientUnits="userSpaceOnUse">
<stop stop-color="#9B201D"/>
<stop offset="1" stop-color="#30207C"/>
</linearGradient>
<clipPath id="clip0_1087_385">
<rect width="604" height="853" fill="white" transform="translate(4.31445 6.47852)"/>
</clipPath>
</defs>
</svg>
