<svg id="Capa_1" data-name="Capa 1" xmlns="http://www.w3.org/2000/svg" viewBox="0 0 566.93 566.93"><defs><style>.cls-1,.cls-2{fill:#e52528;}.cls-1{stroke:#e52528;stroke-miterlimit:10;}</style></defs><title>Favicon</title><path class="cls-1" d="M102.27,206.88q25.83-21.63,53.54-31.79t53.07-5.94q25.34,4.2,44.54,25.52,7.84,8.73,13.26,22.67a145.69,145.69,0,0,1,7.94,30.06,126.43,126.43,0,0,1,1,32.07,85.86,85.86,0,0,1-7.65,28.7,8.59,8.59,0,0,1-1.86,2.91,24.72,24.72,0,0,1-2.29,2.37q-1.57,1.32-2.22.51-1.08-1.35.5-7.63a106.36,106.36,0,0,0,1.81-35.75,120.32,120.32,0,0,0-8.75-34.1,125.83,125.83,0,0,0-17.64-29.82q-12.7-15.93-28.58-21.77a70.29,70.29,0,0,0-33.13-3.78,105.1,105.1,0,0,0-34.54,10.7,168.64,168.64,0,0,0-33.1,21.87A203.54,203.54,0,0,0,76.46,247a176.22,176.22,0,0,0-22.23,38q-12.39,30.19-11.17,58.45t15,45.53A51.94,51.94,0,0,0,75.9,403.28q10.48,5.18,24.31,4.86A109.9,109.9,0,0,0,123.38,405q12.75-3,26.34-7.21t26.89-7.89a140.9,140.9,0,0,1,24.78-4.76q16.35-1.54,27.91,2.75a40.84,40.84,0,0,1,18.23,12.65,48,48,0,0,1,9.84,24.18,83.6,83.6,0,0,1-1.87,30.17,104.52,104.52,0,0,1-12.67,30.66A196.3,196.3,0,0,1,224,511.2a201.37,201.37,0,0,1-23.44,23.23,165.67,165.67,0,0,1-20.81,15,67.9,67.9,0,0,1-20.67,8.53q-12.41,3.18-22.85,0a33.09,33.09,0,0,1-16.7-11q-8.62-10.8-5.6-26.84a73.2,73.2,0,0,1,3.66-11.39,64.63,64.63,0,0,1,6.89-12.3,12.55,12.55,0,0,1,2.15-2.26q3.17-2.65,4.67-.76c.58.72.62,2,.12,3.73a14,14,0,0,1-4,5.79q-7,7.69-7,16.25a23.89,23.89,0,0,0,5.39,15.3q5.59,7,15.71,10t23.35-.2q13.26-3.22,28-15.58A136.67,136.67,0,0,0,210,511.24,188.54,188.54,0,0,0,227,486.6q10.4-17.27,12-35.31t-7.4-29.39q-5.59-7-15.92-10.31T190,410.43a256.52,256.52,0,0,0-28.27,5.89q-15.27,4-30.8,8.23a217.31,217.31,0,0,1-29.49,6q-21.81,3-36.54-2.27T41.3,412Q31,399,28,379.65a143,143,0,0,1,0-41A218.45,218.45,0,0,1,38.4,296a191.61,191.61,0,0,1,25.47-47.69A226.73,226.73,0,0,1,102.27,206.88Z"/><path class="cls-1" d="M500.68,245.88A191.43,191.43,0,0,1,527.15,293a217.75,217.75,0,0,1,11.25,42.43,143,143,0,0,1,.89,41q-2.52,19.45-12.59,32.63a51.32,51.32,0,0,1-23.2,16.82Q488.89,431.43,467,429a218.31,218.31,0,0,1-29.61-5.35q-15.61-3.89-31-7.55a257.4,257.4,0,0,0-28.39-5.26q-15.48-1.79-25.73,1.74t-15.7,10.66q-8.81,11.54-6.78,29.54t12.79,35A188.9,188.9,0,0,0,360.19,512a136.51,136.51,0,0,0,17.44,17.07q15,12,28.33,14.95t23.36-.31q10-3.26,15.48-10.39a24,24,0,0,0,5.08-15.42q-.18-8.55-7.38-16.09a13.93,13.93,0,0,1-4.08-5.7c-.53-1.76-.51-3,0-3.73q1.47-1.92,4.69.65a12.73,12.73,0,0,1,2.2,2.21,64.87,64.87,0,0,1,7.15,12.15,71.93,71.93,0,0,1,3.89,11.31q3.38,16-5,27a33.12,33.12,0,0,1-16.46,11.38q-10.38,3.41-22.85.5a67.79,67.79,0,0,1-20.85-8.07A165.29,165.29,0,0,1,370.09,535a201.45,201.45,0,0,1-23.93-22.71A194.88,194.88,0,0,1,326.78,487a104.68,104.68,0,0,1-13.32-30.37A83.66,83.66,0,0,1,311,426.53a48.1,48.1,0,0,1,9.34-24.4,40.85,40.85,0,0,1,17.95-13.05q11.46-4.54,27.84-3.37A140.88,140.88,0,0,1,391,389.92q13.38,3.42,27.06,7.29t26.49,6.62a108.82,108.82,0,0,0,23.23,2.68q13.81,0,24.2-5.4a51.79,51.79,0,0,0,17.52-14.74q13.41-17.58,14-45.85t-12.4-58.19a176.25,176.25,0,0,0-23-37.48,203.66,203.66,0,0,0-32.38-32.58,168.63,168.63,0,0,0-33.56-21.13,104.89,104.89,0,0,0-34.76-9.93,70.4,70.4,0,0,0-33,4.51q-15.74,6.19-28.11,22.41a125.8,125.8,0,0,0-17,30.2,120.14,120.14,0,0,0-8,34.29,106.26,106.26,0,0,0,2.56,35.7q1.72,6.24.67,7.62c-.42.55-1.17.39-2.24-.47a24.91,24.91,0,0,1-2.34-2.31,8.65,8.65,0,0,1-1.92-2.87,85.68,85.68,0,0,1-8.25-28.52,126.33,126.33,0,0,1,.29-32.09,144.89,144.89,0,0,1,7.3-30.22q5.13-14.06,12.78-23,18.73-21.74,44-26.5t53.18,4.76q27.92,9.54,54.2,30.59A226.61,226.61,0,0,1,500.68,245.88Z"/><path class="cls-1" d="M252.13,45.92c2-28.82-11.3-36.2-17.67-38.08a10.4,10.4,0,0,0-6.34.15c-5.11,1.76-14.34,7.14-8.93,22.37C203.54,35.15,204.88,45.55,207,51.27a13.38,13.38,0,0,0,6.39,7.25C219.69,61.72,232.57,63.82,252.13,45.92Z"/><path class="cls-2" d="M282.9,214.77a69.11,69.11,0,0,0-1.72-12.37,82.34,82.34,0,0,0-3.66-11.94,76.92,76.92,0,0,0-12.62-21.4A74.86,74.86,0,0,0,246.06,153a91.27,91.27,0,0,0-22.82-9.66,131.71,131.71,0,0,0-24.5-4.18c-4.12-.29-8.36-.46-12.56-.84s-8.4-.86-12.58-1.51a142.62,142.62,0,0,1-24.68-6,92.72,92.72,0,0,1-22.86-11.45,61.61,61.61,0,0,1-17.79-18.71,49.44,49.44,0,0,1-7.07-25.06,52.54,52.54,0,0,1,6.5-25.29,61.31,61.31,0,0,1,17.15-19.57,70,70,0,0,1,23.3-11.25,81.92,81.92,0,0,1,25.52-2.69,96.27,96.27,0,0,1,12.7,1.48,110.08,110.08,0,0,1,12.34,3.06,127.92,127.92,0,0,1,23.19,10,.25.25,0,0,1,.1.34.25.25,0,0,1-.32.11,140,140,0,0,0-23.6-8.2,104.52,104.52,0,0,0-24.51-3.21,81.28,81.28,0,0,0-24.17,3.42,67.21,67.21,0,0,0-21.51,10.94,57.6,57.6,0,0,0-15.65,18A48.6,48.6,0,0,0,106,75.59a44.43,44.43,0,0,0,6,22.87,57.17,57.17,0,0,0,16.32,17.73A89.07,89.07,0,0,0,150.1,127.5a138.68,138.68,0,0,0,24,6.25q6.13,1,12.35,1.68c4.14.44,8.27.67,12.51,1a128.92,128.92,0,0,1,24.92,4.64A93.11,93.11,0,0,1,247,151.41a76.22,76.22,0,0,1,19,16.75,77.89,77.89,0,0,1,12.41,22,84.11,84.11,0,0,1,3.49,12.14,69.18,69.18,0,0,1,1.5,12.52.25.25,0,0,1-.24.26.26.26,0,0,1-.26-.25Z"/></svg>